<svg id="Layer_1" data-name="Layer 1" xmlns="http://www.w3.org/2000/svg" viewBox="0 0 80.67 26.62"><defs><style>.cls-1{fill:#231f20;}</style></defs><path class="cls-1" d="M35.07,22.59s-.1,0-.17.1c-3,2.18-5.28,3.08-6.88,3.08-2,0-3-1.43-3-3.55,0-6.4,8.67-19.17,23.72-19.17a11.45,11.45,0,0,1,3.3.5.2.2,0,0,1,.12.2c0,.27-.27.72-.62.72a13.75,13.75,0,0,0-1.68-.1c-7.35,0-12.82,7.25-12.82,10.38,0,.85.4,1.4,1.3,1.4s8.22-9.68,9.5-9.68c1,0,4,2.8,4.27,3.48,0,.42-.27.47-.67.87-3.18,3.33-5.5,7.25-5.5,9.43A1.54,1.54,0,0,0,47.72,22c1,0,2.55-1.18,3.65-2.4a.47.47,0,0,1,.27-.1.39.39,0,0,1,.35.37c-3.57,4.9-7.37,6.5-10.45,6.5-3.39,0-5.89-1.95-6.24-3.45C35.3,22.87,35.22,22.59,35.07,22.59Z"/><path class="cls-1" d="M49.85,23.59c0-5.12,9.52-11,9.52-14.29a.47.47,0,0,0-.5-.53c-1,0-2.3.8-2.75.8a.38.38,0,0,1-.42-.4c0-1.22,7.1-3.82,9.14-3.82,1.25,0,1.73.57,1.73,1.45,0,2.52-3.9,7.62-3.9,9,0,.63.33.83.78.83,2.92,0,5.67-3.18,7.17-5.65,0-.1-.2-.23-.2-.23A3.17,3.17,0,0,1,68.87,7.9c0-3.4,3.85-7.9,7-7.9,1.4,0,2,.67,2,1.8,0,1.77-1.48,4.65-3.73,7.82a4,4,0,0,0,.6,0A9.11,9.11,0,0,0,80,7.55s.28-.23.43-.23a.35.35,0,0,1,.25.38.41.41,0,0,1-.1.32c-1,1.05-4.8,3.65-7.95,3.7C67,18.87,58.42,26.62,54,26.62,52,26.62,49.85,25.69,49.85,23.59Z"/><path class="cls-1" d="M0,23.78c0-.35.89-.71,1.28-.71a1,1,0,0,1,.54.14,3.76,3.76,0,0,0,2.25.71c3.33,0,6.25-4.39,6.25-6.87,0-1.06-.4-1.81-1.11-1.81-.44,0-1,.31-1.73,1.1-.57.62-1,2-2.11,2.16-.37.06-.94-.47-1-.84,0-.74,1.39-1.41,2.1-2.2,3-3.32,8.68-9.57,11.52-12.54C18.2,2.7,20.82,0,22,0s3,.53,3,1.33c0,1.42-3.46,2.48-3.46,5.05,0,2.26,1.55,5,1.55,8a7.6,7.6,0,0,1-2.21,5.36c1.77,0,5-1.94,6.46-4.45a.51.51,0,0,1,.54-.3c.35,0,.57.72.57,1a.59.59,0,0,1-.13.39,28.25,28.25,0,0,1-4.65,4.39c-3.72,2.83-11.2,5.89-17,5.89-2.84,0-5.27-.75-6.6-2.66A.28.28,0,0,1,0,23.78Z"/></svg>
